<mxfile host="app.diagrams.net" modified="2024-04-07T08:10:04.002Z" agent="Mozilla/5.0 (Windows NT 10.0; Win64; x64) AppleWebKit/537.36 (KHTML, like Gecko) Chrome/123.0.0.0 Safari/537.36" etag="qp702DhYfZOZHEPSSByH" version="24.2.2" type="github">
  <diagram id="C5RBs43oDa-KdzZeNtuy" name="Page-1">
    <mxGraphModel dx="1434" dy="772" grid="1" gridSize="10" guides="1" tooltips="1" connect="1" arrows="1" fold="1" page="1" pageScale="1" pageWidth="827" pageHeight="1169" math="0" shadow="0">
      <root>
        <mxCell id="WIyWlLk6GJQsqaUBKTNV-0" />
        <mxCell id="WIyWlLk6GJQsqaUBKTNV-1" parent="WIyWlLk6GJQsqaUBKTNV-0" />
        <mxCell id="9A3nvJYk9NIWhy4ign9h-316" style="edgeStyle=orthogonalEdgeStyle;rounded=0;orthogonalLoop=1;jettySize=auto;html=1;" edge="1" parent="WIyWlLk6GJQsqaUBKTNV-1" source="9A3nvJYk9NIWhy4ign9h-113" target="9A3nvJYk9NIWhy4ign9h-315">
          <mxGeometry relative="1" as="geometry">
            <mxPoint x="390" y="1620" as="targetPoint" />
            <Array as="points">
              <mxPoint x="223" y="1475" />
              <mxPoint x="281" y="1475" />
              <mxPoint x="281" y="1585" />
            </Array>
          </mxGeometry>
        </mxCell>
        <mxCell id="9A3nvJYk9NIWhy4ign9h-113" value="Developer 3" style="whiteSpace=wrap;strokeWidth=2;verticalAlign=top;fillColor=#b0e3e6;strokeColor=#0e8088;fontStyle=1;fontSize=13;labelBorderColor=none;labelBackgroundColor=none;textShadow=0;" vertex="1" parent="WIyWlLk6GJQsqaUBKTNV-1">
          <mxGeometry x="60" y="304" width="325" height="1125" as="geometry" />
        </mxCell>
        <mxCell id="9A3nvJYk9NIWhy4ign9h-114" value="Create Branch" style="rounded=1;absoluteArcSize=1;arcSize=14;whiteSpace=wrap;strokeWidth=2;fillColor=#b0e3e6;strokeColor=#0e8088;fontStyle=1;fontSize=13;labelBorderColor=none;labelBackgroundColor=none;textShadow=0;" vertex="1" parent="WIyWlLk6GJQsqaUBKTNV-1">
          <mxGeometry x="164" y="413" width="117" height="34" as="geometry" />
        </mxCell>
        <mxCell id="9A3nvJYk9NIWhy4ign9h-115" value="Clone Repository" style="whiteSpace=wrap;strokeWidth=2;fillColor=#b0e3e6;strokeColor=#0e8088;fontStyle=1;fontSize=13;labelBorderColor=none;labelBackgroundColor=none;textShadow=0;" vertex="1" parent="WIyWlLk6GJQsqaUBKTNV-1">
          <mxGeometry x="155" y="329" width="136" height="34" as="geometry" />
        </mxCell>
        <mxCell id="9A3nvJYk9NIWhy4ign9h-116" value="Work on Code" style="rounded=1;absoluteArcSize=1;arcSize=14;whiteSpace=wrap;strokeWidth=2;fillColor=#b0e3e6;strokeColor=#0e8088;fontStyle=1;fontSize=13;labelBorderColor=none;labelBackgroundColor=none;textShadow=0;" vertex="1" parent="WIyWlLk6GJQsqaUBKTNV-1">
          <mxGeometry x="165" y="497" width="115" height="34" as="geometry" />
        </mxCell>
        <mxCell id="9A3nvJYk9NIWhy4ign9h-117" value="Commit Changes" style="rounded=1;absoluteArcSize=1;arcSize=14;whiteSpace=wrap;strokeWidth=2;fillColor=#b0e3e6;strokeColor=#0e8088;fontStyle=1;fontSize=13;labelBorderColor=none;labelBackgroundColor=none;textShadow=0;" vertex="1" parent="WIyWlLk6GJQsqaUBKTNV-1">
          <mxGeometry x="155" y="581" width="135" height="34" as="geometry" />
        </mxCell>
        <mxCell id="9A3nvJYk9NIWhy4ign9h-297" style="edgeStyle=orthogonalEdgeStyle;rounded=0;orthogonalLoop=1;jettySize=auto;html=1;flowAnimation=1;" edge="1" parent="WIyWlLk6GJQsqaUBKTNV-1" source="9A3nvJYk9NIWhy4ign9h-118">
          <mxGeometry relative="1" as="geometry">
            <mxPoint x="120" y="230" as="targetPoint" />
          </mxGeometry>
        </mxCell>
        <mxCell id="9A3nvJYk9NIWhy4ign9h-118" value="Push Branch to Main" style="rounded=1;absoluteArcSize=1;arcSize=14;whiteSpace=wrap;strokeWidth=2;fillColor=#b0e3e6;strokeColor=#0e8088;fontStyle=1;fontSize=13;labelBorderColor=none;labelBackgroundColor=none;textShadow=0;" vertex="1" parent="WIyWlLk6GJQsqaUBKTNV-1">
          <mxGeometry x="143" y="665" width="160" height="34" as="geometry" />
        </mxCell>
        <mxCell id="9A3nvJYk9NIWhy4ign9h-119" value="Manager Merge Request?" style="rhombus;strokeWidth=2;whiteSpace=wrap;fillColor=#b0e3e6;strokeColor=#0e8088;fontStyle=1;fontSize=13;labelBorderColor=none;labelBackgroundColor=none;textShadow=0;" vertex="1" parent="WIyWlLk6GJQsqaUBKTNV-1">
          <mxGeometry x="110" y="749" width="225" height="225" as="geometry" />
        </mxCell>
        <mxCell id="9A3nvJYk9NIWhy4ign9h-120" value="Merge Developer Request to Main" style="rounded=1;absoluteArcSize=1;arcSize=14;whiteSpace=wrap;strokeWidth=2;fillColor=#b0e3e6;strokeColor=#0e8088;fontStyle=1;fontSize=13;labelBorderColor=none;labelBackgroundColor=none;textShadow=0;" vertex="1" parent="WIyWlLk6GJQsqaUBKTNV-1">
          <mxGeometry x="95" y="1043" width="255" height="34" as="geometry" />
        </mxCell>
        <mxCell id="9A3nvJYk9NIWhy4ign9h-121" value="Pull Main Branch?" style="rhombus;strokeWidth=2;whiteSpace=wrap;fillColor=#b0e3e6;strokeColor=#0e8088;fontStyle=1;fontSize=13;labelBorderColor=none;labelBackgroundColor=none;textShadow=0;" vertex="1" parent="WIyWlLk6GJQsqaUBKTNV-1">
          <mxGeometry x="136" y="1127" width="174" height="174" as="geometry" />
        </mxCell>
        <mxCell id="9A3nvJYk9NIWhy4ign9h-122" value="Pull from Main" style="rounded=1;absoluteArcSize=1;arcSize=14;whiteSpace=wrap;strokeWidth=2;fillColor=#b0e3e6;strokeColor=#0e8088;fontStyle=1;fontSize=13;labelBorderColor=none;labelBackgroundColor=none;textShadow=0;" vertex="1" parent="WIyWlLk6GJQsqaUBKTNV-1">
          <mxGeometry x="163" y="1370" width="119" height="34" as="geometry" />
        </mxCell>
        <mxCell id="9A3nvJYk9NIWhy4ign9h-317" value="" style="edgeStyle=orthogonalEdgeStyle;rounded=0;orthogonalLoop=1;jettySize=auto;html=1;" edge="1" parent="WIyWlLk6GJQsqaUBKTNV-1" source="9A3nvJYk9NIWhy4ign9h-123" target="9A3nvJYk9NIWhy4ign9h-315">
          <mxGeometry relative="1" as="geometry">
            <Array as="points">
              <mxPoint x="550" y="1485" />
              <mxPoint x="508" y="1485" />
            </Array>
          </mxGeometry>
        </mxCell>
        <mxCell id="9A3nvJYk9NIWhy4ign9h-123" value="ANANT" style="whiteSpace=wrap;strokeWidth=2;verticalAlign=top;fillColor=#b0e3e6;strokeColor=#0e8088;fontStyle=1;fontSize=13;labelBorderColor=none;labelBackgroundColor=none;textShadow=0;" vertex="1" parent="WIyWlLk6GJQsqaUBKTNV-1">
          <mxGeometry x="405" y="304" width="325" height="1125" as="geometry" />
        </mxCell>
        <mxCell id="9A3nvJYk9NIWhy4ign9h-124" value="Create Branch" style="rounded=1;absoluteArcSize=1;arcSize=14;whiteSpace=wrap;strokeWidth=2;fillColor=#b0e3e6;strokeColor=#0e8088;fontStyle=1;fontSize=13;labelBorderColor=none;labelBackgroundColor=none;textShadow=0;" vertex="1" parent="WIyWlLk6GJQsqaUBKTNV-1">
          <mxGeometry x="510" y="413" width="117" height="34" as="geometry" />
        </mxCell>
        <mxCell id="9A3nvJYk9NIWhy4ign9h-125" value="Clone Repository" style="whiteSpace=wrap;strokeWidth=2;fillColor=#b0e3e6;strokeColor=#0e8088;fontStyle=1;fontSize=13;labelBorderColor=none;labelBackgroundColor=none;textShadow=0;" vertex="1" parent="WIyWlLk6GJQsqaUBKTNV-1">
          <mxGeometry x="500" y="329" width="136" height="34" as="geometry" />
        </mxCell>
        <mxCell id="9A3nvJYk9NIWhy4ign9h-126" value="Work on Code" style="rounded=1;absoluteArcSize=1;arcSize=14;whiteSpace=wrap;strokeWidth=2;fillColor=#b0e3e6;strokeColor=#0e8088;fontStyle=1;fontSize=13;labelBorderColor=none;labelBackgroundColor=none;textShadow=0;" vertex="1" parent="WIyWlLk6GJQsqaUBKTNV-1">
          <mxGeometry x="511" y="497" width="115" height="34" as="geometry" />
        </mxCell>
        <mxCell id="9A3nvJYk9NIWhy4ign9h-127" value="Commit Changes" style="rounded=1;absoluteArcSize=1;arcSize=14;whiteSpace=wrap;strokeWidth=2;fillColor=#b0e3e6;strokeColor=#0e8088;fontStyle=1;fontSize=13;labelBorderColor=none;labelBackgroundColor=none;textShadow=0;" vertex="1" parent="WIyWlLk6GJQsqaUBKTNV-1">
          <mxGeometry x="501" y="581" width="135" height="34" as="geometry" />
        </mxCell>
        <mxCell id="9A3nvJYk9NIWhy4ign9h-305" style="edgeStyle=orthogonalEdgeStyle;rounded=0;orthogonalLoop=1;jettySize=auto;html=1;" edge="1" parent="WIyWlLk6GJQsqaUBKTNV-1" source="9A3nvJYk9NIWhy4ign9h-128">
          <mxGeometry relative="1" as="geometry">
            <mxPoint x="440" y="260" as="targetPoint" />
          </mxGeometry>
        </mxCell>
        <mxCell id="9A3nvJYk9NIWhy4ign9h-128" value="Push Branch to Main" style="rounded=1;absoluteArcSize=1;arcSize=14;whiteSpace=wrap;strokeWidth=2;fillColor=#b0e3e6;strokeColor=#0e8088;fontStyle=1;fontSize=13;labelBorderColor=none;labelBackgroundColor=none;textShadow=0;" vertex="1" parent="WIyWlLk6GJQsqaUBKTNV-1">
          <mxGeometry x="488" y="665" width="160" height="34" as="geometry" />
        </mxCell>
        <mxCell id="9A3nvJYk9NIWhy4ign9h-129" value="Manager Merge Request?" style="rhombus;strokeWidth=2;whiteSpace=wrap;fillColor=#b0e3e6;strokeColor=#0e8088;fontStyle=1;fontSize=13;labelBorderColor=none;labelBackgroundColor=none;textShadow=0;" vertex="1" parent="WIyWlLk6GJQsqaUBKTNV-1">
          <mxGeometry x="456" y="749" width="225" height="225" as="geometry" />
        </mxCell>
        <mxCell id="9A3nvJYk9NIWhy4ign9h-130" value="Merge Developer Request to Main" style="rounded=1;absoluteArcSize=1;arcSize=14;whiteSpace=wrap;strokeWidth=2;fillColor=#b0e3e6;strokeColor=#0e8088;fontStyle=1;fontSize=13;labelBorderColor=none;labelBackgroundColor=none;textShadow=0;" vertex="1" parent="WIyWlLk6GJQsqaUBKTNV-1">
          <mxGeometry x="440" y="1043" width="255" height="34" as="geometry" />
        </mxCell>
        <mxCell id="9A3nvJYk9NIWhy4ign9h-131" value="Pull Main Branch?" style="rhombus;strokeWidth=2;whiteSpace=wrap;fillColor=#b0e3e6;strokeColor=#0e8088;fontStyle=1;fontSize=13;labelBorderColor=none;labelBackgroundColor=none;textShadow=0;" vertex="1" parent="WIyWlLk6GJQsqaUBKTNV-1">
          <mxGeometry x="481" y="1127" width="174" height="174" as="geometry" />
        </mxCell>
        <mxCell id="9A3nvJYk9NIWhy4ign9h-132" value="Pull from Main" style="rounded=1;absoluteArcSize=1;arcSize=14;whiteSpace=wrap;strokeWidth=2;fillColor=#b0e3e6;strokeColor=#0e8088;fontStyle=1;fontSize=13;labelBorderColor=none;labelBackgroundColor=none;textShadow=0;" vertex="1" parent="WIyWlLk6GJQsqaUBKTNV-1">
          <mxGeometry x="509" y="1370" width="119" height="34" as="geometry" />
        </mxCell>
        <mxCell id="9A3nvJYk9NIWhy4ign9h-321" style="edgeStyle=orthogonalEdgeStyle;rounded=0;orthogonalLoop=1;jettySize=auto;html=1;" edge="1" parent="WIyWlLk6GJQsqaUBKTNV-1" source="9A3nvJYk9NIWhy4ign9h-133" target="9A3nvJYk9NIWhy4ign9h-315">
          <mxGeometry relative="1" as="geometry">
            <mxPoint x="790" y="1600" as="targetPoint" />
            <Array as="points">
              <mxPoint x="914" y="1610" />
              <mxPoint x="791" y="1610" />
              <mxPoint x="791" y="1585" />
            </Array>
          </mxGeometry>
        </mxCell>
        <mxCell id="9A3nvJYk9NIWhy4ign9h-133" value="GAURAV" style="whiteSpace=wrap;strokeWidth=2;verticalAlign=top;fillColor=#b0e3e6;strokeColor=#0e8088;fontStyle=1;fontSize=13;labelBorderColor=none;labelBackgroundColor=none;textShadow=0;" vertex="1" parent="WIyWlLk6GJQsqaUBKTNV-1">
          <mxGeometry x="751" y="304" width="325" height="1125" as="geometry" />
        </mxCell>
        <mxCell id="9A3nvJYk9NIWhy4ign9h-134" value="Create Branch" style="rounded=1;absoluteArcSize=1;arcSize=14;whiteSpace=wrap;strokeWidth=2;fillColor=#b0e3e6;strokeColor=#0e8088;fontStyle=1;fontSize=13;labelBorderColor=none;labelBackgroundColor=none;textShadow=0;" vertex="1" parent="WIyWlLk6GJQsqaUBKTNV-1">
          <mxGeometry x="855" y="413" width="117" height="34" as="geometry" />
        </mxCell>
        <mxCell id="9A3nvJYk9NIWhy4ign9h-135" value="Clone Repository" style="whiteSpace=wrap;strokeWidth=2;fillColor=#b0e3e6;strokeColor=#0e8088;fontStyle=1;fontSize=13;labelBorderColor=none;labelBackgroundColor=none;textShadow=0;" vertex="1" parent="WIyWlLk6GJQsqaUBKTNV-1">
          <mxGeometry x="845" y="329" width="136" height="34" as="geometry" />
        </mxCell>
        <mxCell id="9A3nvJYk9NIWhy4ign9h-136" value="Work on Code" style="rounded=1;absoluteArcSize=1;arcSize=14;whiteSpace=wrap;strokeWidth=2;fillColor=#b0e3e6;strokeColor=#0e8088;fontStyle=1;fontSize=13;labelBorderColor=none;labelBackgroundColor=none;textShadow=0;" vertex="1" parent="WIyWlLk6GJQsqaUBKTNV-1">
          <mxGeometry x="856" y="497" width="115" height="34" as="geometry" />
        </mxCell>
        <mxCell id="9A3nvJYk9NIWhy4ign9h-137" value="Commit Changes" style="rounded=1;absoluteArcSize=1;arcSize=14;whiteSpace=wrap;strokeWidth=2;fillColor=#b0e3e6;strokeColor=#0e8088;fontStyle=1;fontSize=13;labelBorderColor=none;labelBackgroundColor=none;textShadow=0;" vertex="1" parent="WIyWlLk6GJQsqaUBKTNV-1">
          <mxGeometry x="846" y="581" width="135" height="34" as="geometry" />
        </mxCell>
        <mxCell id="9A3nvJYk9NIWhy4ign9h-303" style="edgeStyle=orthogonalEdgeStyle;rounded=0;orthogonalLoop=1;jettySize=auto;html=1;" edge="1" parent="WIyWlLk6GJQsqaUBKTNV-1" source="9A3nvJYk9NIWhy4ign9h-138" target="9A3nvJYk9NIWhy4ign9h-133">
          <mxGeometry relative="1" as="geometry" />
        </mxCell>
        <mxCell id="9A3nvJYk9NIWhy4ign9h-304" style="edgeStyle=orthogonalEdgeStyle;rounded=0;orthogonalLoop=1;jettySize=auto;html=1;" edge="1" parent="WIyWlLk6GJQsqaUBKTNV-1" source="9A3nvJYk9NIWhy4ign9h-138">
          <mxGeometry relative="1" as="geometry">
            <mxPoint x="770" y="270" as="targetPoint" />
          </mxGeometry>
        </mxCell>
        <mxCell id="9A3nvJYk9NIWhy4ign9h-138" value="Push Branch to Main" style="rounded=1;absoluteArcSize=1;arcSize=14;whiteSpace=wrap;strokeWidth=2;fillColor=#b0e3e6;strokeColor=#0e8088;fontStyle=1;fontSize=13;labelBorderColor=none;labelBackgroundColor=none;textShadow=0;" vertex="1" parent="WIyWlLk6GJQsqaUBKTNV-1">
          <mxGeometry x="834" y="665" width="160" height="34" as="geometry" />
        </mxCell>
        <mxCell id="9A3nvJYk9NIWhy4ign9h-139" value="Manager Merge Request?" style="rhombus;strokeWidth=2;whiteSpace=wrap;fillColor=#b0e3e6;strokeColor=#0e8088;fontStyle=1;fontSize=13;labelBorderColor=none;labelBackgroundColor=none;textShadow=0;" vertex="1" parent="WIyWlLk6GJQsqaUBKTNV-1">
          <mxGeometry x="801" y="749" width="225" height="225" as="geometry" />
        </mxCell>
        <mxCell id="9A3nvJYk9NIWhy4ign9h-140" value="Merge Developer Request to Main" style="rounded=1;absoluteArcSize=1;arcSize=14;whiteSpace=wrap;strokeWidth=2;fillColor=#b0e3e6;strokeColor=#0e8088;fontStyle=1;fontSize=13;labelBorderColor=none;labelBackgroundColor=none;textShadow=0;" vertex="1" parent="WIyWlLk6GJQsqaUBKTNV-1">
          <mxGeometry x="786" y="1043" width="255" height="34" as="geometry" />
        </mxCell>
        <mxCell id="9A3nvJYk9NIWhy4ign9h-141" value="Pull Main Branch?" style="rhombus;strokeWidth=2;whiteSpace=wrap;fillColor=#b0e3e6;strokeColor=#0e8088;fontStyle=1;fontSize=13;labelBorderColor=none;labelBackgroundColor=none;textShadow=0;" vertex="1" parent="WIyWlLk6GJQsqaUBKTNV-1">
          <mxGeometry x="827" y="1127" width="174" height="174" as="geometry" />
        </mxCell>
        <mxCell id="9A3nvJYk9NIWhy4ign9h-142" value="Pull from Main" style="rounded=1;absoluteArcSize=1;arcSize=14;whiteSpace=wrap;strokeWidth=2;fillColor=#b0e3e6;strokeColor=#0e8088;fontStyle=1;fontSize=13;labelBorderColor=none;labelBackgroundColor=none;textShadow=0;" vertex="1" parent="WIyWlLk6GJQsqaUBKTNV-1">
          <mxGeometry x="854" y="1370" width="119" height="34" as="geometry" />
        </mxCell>
        <mxCell id="9A3nvJYk9NIWhy4ign9h-143" value="SAHAJ MAIN BRANCH" style="whiteSpace=wrap;strokeWidth=2;verticalAlign=top;fillColor=#b0e3e6;strokeColor=#0e8088;fontStyle=1;fontSize=13;labelBorderColor=none;labelBackgroundColor=none;textShadow=0;" vertex="1" parent="WIyWlLk6GJQsqaUBKTNV-1">
          <mxGeometry x="183" y="170" width="751" height="84" as="geometry" />
        </mxCell>
        <mxCell id="9A3nvJYk9NIWhy4ign9h-144" value="Main Branch" style="whiteSpace=wrap;strokeWidth=2;fillColor=#b0e3e6;strokeColor=#0e8088;fontStyle=1;fontSize=13;labelBorderColor=none;labelBackgroundColor=none;textShadow=0;" vertex="1" parent="WIyWlLk6GJQsqaUBKTNV-1">
          <mxGeometry x="517" y="195" width="103" height="34" as="geometry" />
        </mxCell>
        <mxCell id="9A3nvJYk9NIWhy4ign9h-145" value="" style="curved=1;startArrow=none;endArrow=block;exitX=0.5045094209558824;exitY=1;entryX=0.5009682158119658;entryY=0;rounded=0;fillColor=#b0e3e6;strokeColor=#0e8088;fontStyle=1;fontSize=13;labelBorderColor=none;labelBackgroundColor=none;textShadow=0;" edge="1" parent="WIyWlLk6GJQsqaUBKTNV-1" source="9A3nvJYk9NIWhy4ign9h-135" target="9A3nvJYk9NIWhy4ign9h-134">
          <mxGeometry relative="1" as="geometry">
            <Array as="points" />
          </mxGeometry>
        </mxCell>
        <mxCell id="9A3nvJYk9NIWhy4ign9h-146" value="" style="curved=1;startArrow=none;endArrow=block;exitX=0.5009682158119658;exitY=1;entryX=0.5009850543478261;entryY=0;rounded=0;fillColor=#b0e3e6;strokeColor=#0e8088;fontStyle=1;fontSize=13;labelBorderColor=none;labelBackgroundColor=none;textShadow=0;" edge="1" parent="WIyWlLk6GJQsqaUBKTNV-1" source="9A3nvJYk9NIWhy4ign9h-134" target="9A3nvJYk9NIWhy4ign9h-136">
          <mxGeometry relative="1" as="geometry">
            <Array as="points" />
          </mxGeometry>
        </mxCell>
        <mxCell id="9A3nvJYk9NIWhy4ign9h-147" value="" style="curved=1;startArrow=none;endArrow=block;exitX=0.5009850543478261;exitY=1;entryX=0.5008391203703704;entryY=0;rounded=0;fillColor=#b0e3e6;strokeColor=#0e8088;fontStyle=1;fontSize=13;labelBorderColor=none;labelBackgroundColor=none;textShadow=0;" edge="1" parent="WIyWlLk6GJQsqaUBKTNV-1" source="9A3nvJYk9NIWhy4ign9h-136" target="9A3nvJYk9NIWhy4ign9h-137">
          <mxGeometry relative="1" as="geometry">
            <Array as="points" />
          </mxGeometry>
        </mxCell>
        <mxCell id="9A3nvJYk9NIWhy4ign9h-148" value="" style="curved=1;startArrow=none;endArrow=block;exitX=0.5008391203703704;exitY=1;entryX=0.4975830078125;entryY=0;rounded=0;fillColor=#b0e3e6;strokeColor=#0e8088;fontStyle=1;fontSize=13;labelBorderColor=none;labelBackgroundColor=none;textShadow=0;" edge="1" parent="WIyWlLk6GJQsqaUBKTNV-1" source="9A3nvJYk9NIWhy4ign9h-137" target="9A3nvJYk9NIWhy4ign9h-138">
          <mxGeometry relative="1" as="geometry">
            <Array as="points" />
          </mxGeometry>
        </mxCell>
        <mxCell id="9A3nvJYk9NIWhy4ign9h-149" value="" style="curved=1;startArrow=none;endArrow=block;exitX=0.4975830078125;exitY=1;entryX=0.5005034722222222;entryY=0;rounded=0;fillColor=#b0e3e6;strokeColor=#0e8088;fontStyle=1;fontSize=13;labelBorderColor=none;labelBackgroundColor=none;textShadow=0;" edge="1" parent="WIyWlLk6GJQsqaUBKTNV-1" source="9A3nvJYk9NIWhy4ign9h-138" target="9A3nvJYk9NIWhy4ign9h-139">
          <mxGeometry relative="1" as="geometry">
            <Array as="points" />
          </mxGeometry>
        </mxCell>
        <mxCell id="9A3nvJYk9NIWhy4ign9h-150" value="Yes" style="curved=1;startArrow=none;endArrow=block;exitX=0.5005034722222222;exitY=1.0007638888888888;entryX=0.5004442401960785;entryY=0.00505514705882353;rounded=0;fillColor=#b0e3e6;strokeColor=#0e8088;fontStyle=1;fontSize=13;labelBorderColor=none;labelBackgroundColor=none;textShadow=0;" edge="1" parent="WIyWlLk6GJQsqaUBKTNV-1" source="9A3nvJYk9NIWhy4ign9h-139" target="9A3nvJYk9NIWhy4ign9h-140">
          <mxGeometry relative="1" as="geometry">
            <Array as="points" />
          </mxGeometry>
        </mxCell>
        <mxCell id="9A3nvJYk9NIWhy4ign9h-151" value="" style="curved=1;startArrow=none;endArrow=block;exitX=0.5004442401960785;exitY=1.0050551470588236;entryX=0.49777747844827586;entryY=0.0009877873563218392;rounded=0;fillColor=#b0e3e6;strokeColor=#0e8088;fontStyle=1;fontSize=13;labelBorderColor=none;labelBackgroundColor=none;textShadow=0;" edge="1" parent="WIyWlLk6GJQsqaUBKTNV-1" source="9A3nvJYk9NIWhy4ign9h-140" target="9A3nvJYk9NIWhy4ign9h-141">
          <mxGeometry relative="1" as="geometry">
            <Array as="points" />
          </mxGeometry>
        </mxCell>
        <mxCell id="9A3nvJYk9NIWhy4ign9h-152" value="Yes" style="curved=1;startArrow=none;endArrow=block;exitX=0.49777747844827586;exitY=1.0003591954022988;entryX=0.500951943277311;entryY=0.001838235294117647;rounded=0;fillColor=#b0e3e6;strokeColor=#0e8088;fontStyle=1;fontSize=13;labelBorderColor=none;labelBackgroundColor=none;textShadow=0;" edge="1" parent="WIyWlLk6GJQsqaUBKTNV-1" source="9A3nvJYk9NIWhy4ign9h-141" target="9A3nvJYk9NIWhy4ign9h-142">
          <mxGeometry relative="1" as="geometry">
            <Array as="points" />
          </mxGeometry>
        </mxCell>
        <mxCell id="9A3nvJYk9NIWhy4ign9h-153" value="" style="curved=1;startArrow=none;endArrow=block;exitX=0.5012350643382353;exitY=1;entryX=0.49716212606837606;entryY=0;rounded=0;fillColor=#b0e3e6;strokeColor=#0e8088;fontStyle=1;fontSize=13;labelBorderColor=none;labelBackgroundColor=none;textShadow=0;" edge="1" parent="WIyWlLk6GJQsqaUBKTNV-1" source="9A3nvJYk9NIWhy4ign9h-125" target="9A3nvJYk9NIWhy4ign9h-124">
          <mxGeometry relative="1" as="geometry">
            <Array as="points" />
          </mxGeometry>
        </mxCell>
        <mxCell id="9A3nvJYk9NIWhy4ign9h-154" value="" style="curved=1;startArrow=none;endArrow=block;exitX=0.49716212606837606;exitY=1;entryX=0.49711277173913043;entryY=0;rounded=0;fillColor=#b0e3e6;strokeColor=#0e8088;fontStyle=1;fontSize=13;labelBorderColor=none;labelBackgroundColor=none;textShadow=0;" edge="1" parent="WIyWlLk6GJQsqaUBKTNV-1" source="9A3nvJYk9NIWhy4ign9h-124" target="9A3nvJYk9NIWhy4ign9h-126">
          <mxGeometry relative="1" as="geometry">
            <Array as="points" />
          </mxGeometry>
        </mxCell>
        <mxCell id="9A3nvJYk9NIWhy4ign9h-155" value="" style="curved=1;startArrow=none;endArrow=block;exitX=0.49711277173913043;exitY=1;entryX=0.49754050925925924;entryY=0;rounded=0;fillColor=#b0e3e6;strokeColor=#0e8088;fontStyle=1;fontSize=13;labelBorderColor=none;labelBackgroundColor=none;textShadow=0;" edge="1" parent="WIyWlLk6GJQsqaUBKTNV-1" source="9A3nvJYk9NIWhy4ign9h-126" target="9A3nvJYk9NIWhy4ign9h-127">
          <mxGeometry relative="1" as="geometry">
            <Array as="points" />
          </mxGeometry>
        </mxCell>
        <mxCell id="9A3nvJYk9NIWhy4ign9h-156" value="" style="curved=1;startArrow=none;endArrow=block;exitX=0.49754050925925924;exitY=1;entryX=0.5010498046875;entryY=0;rounded=0;fillColor=#b0e3e6;strokeColor=#0e8088;fontStyle=1;fontSize=13;labelBorderColor=none;labelBackgroundColor=none;textShadow=0;" edge="1" parent="WIyWlLk6GJQsqaUBKTNV-1" source="9A3nvJYk9NIWhy4ign9h-127" target="9A3nvJYk9NIWhy4ign9h-128">
          <mxGeometry relative="1" as="geometry">
            <Array as="points" />
          </mxGeometry>
        </mxCell>
        <mxCell id="9A3nvJYk9NIWhy4ign9h-157" value="" style="curved=1;startArrow=none;endArrow=block;exitX=0.5010498046875;exitY=1;entryX=0.49852430555555555;entryY=0;rounded=0;fillColor=#b0e3e6;strokeColor=#0e8088;fontStyle=1;fontSize=13;labelBorderColor=none;labelBackgroundColor=none;textShadow=0;" edge="1" parent="WIyWlLk6GJQsqaUBKTNV-1" source="9A3nvJYk9NIWhy4ign9h-128" target="9A3nvJYk9NIWhy4ign9h-129">
          <mxGeometry relative="1" as="geometry">
            <Array as="points" />
          </mxGeometry>
        </mxCell>
        <mxCell id="9A3nvJYk9NIWhy4ign9h-158" value="Yes" style="curved=1;startArrow=none;endArrow=block;exitX=0.49852430555555555;exitY=1.0007638888888888;entryX=0.5026194852941176;entryY=0.00505514705882353;rounded=0;fillColor=#b0e3e6;strokeColor=#0e8088;fontStyle=1;fontSize=13;labelBorderColor=none;labelBackgroundColor=none;textShadow=0;" edge="1" parent="WIyWlLk6GJQsqaUBKTNV-1" source="9A3nvJYk9NIWhy4ign9h-129" target="9A3nvJYk9NIWhy4ign9h-130">
          <mxGeometry relative="1" as="geometry">
            <Array as="points" />
          </mxGeometry>
        </mxCell>
        <mxCell id="9A3nvJYk9NIWhy4ign9h-159" value="" style="curved=1;startArrow=none;endArrow=block;exitX=0.5026194852941176;exitY=1.0050551470588236;entryX=0.5009653376436781;entryY=0.0009877873563218392;rounded=0;fillColor=#b0e3e6;strokeColor=#0e8088;fontStyle=1;fontSize=13;labelBorderColor=none;labelBackgroundColor=none;textShadow=0;" edge="1" parent="WIyWlLk6GJQsqaUBKTNV-1" source="9A3nvJYk9NIWhy4ign9h-130" target="9A3nvJYk9NIWhy4ign9h-131">
          <mxGeometry relative="1" as="geometry">
            <Array as="points" />
          </mxGeometry>
        </mxCell>
        <mxCell id="9A3nvJYk9NIWhy4ign9h-160" value="Yes" style="curved=1;startArrow=none;endArrow=block;exitX=0.5009653376436781;exitY=1.0003591954022988;entryX=0.49720982142857145;entryY=0.001838235294117647;rounded=0;fillColor=#b0e3e6;strokeColor=#0e8088;fontStyle=1;fontSize=13;labelBorderColor=none;labelBackgroundColor=none;textShadow=0;" edge="1" parent="WIyWlLk6GJQsqaUBKTNV-1" source="9A3nvJYk9NIWhy4ign9h-131" target="9A3nvJYk9NIWhy4ign9h-132">
          <mxGeometry relative="1" as="geometry">
            <Array as="points" />
          </mxGeometry>
        </mxCell>
        <mxCell id="9A3nvJYk9NIWhy4ign9h-161" value="" style="curved=1;startArrow=none;endArrow=block;exitX=0.49796070772058826;exitY=1;entryX=0.5019030448717948;entryY=0;rounded=0;fillColor=#b0e3e6;strokeColor=#0e8088;fontStyle=1;fontSize=13;labelBorderColor=none;labelBackgroundColor=none;textShadow=0;" edge="1" parent="WIyWlLk6GJQsqaUBKTNV-1" source="9A3nvJYk9NIWhy4ign9h-115" target="9A3nvJYk9NIWhy4ign9h-114">
          <mxGeometry relative="1" as="geometry">
            <Array as="points" />
          </mxGeometry>
        </mxCell>
        <mxCell id="9A3nvJYk9NIWhy4ign9h-162" value="" style="curved=1;startArrow=none;endArrow=block;exitX=0.5019030448717948;exitY=1;entryX=0.5019361413043478;entryY=0;rounded=0;fillColor=#b0e3e6;strokeColor=#0e8088;fontStyle=1;fontSize=13;labelBorderColor=none;labelBackgroundColor=none;textShadow=0;" edge="1" parent="WIyWlLk6GJQsqaUBKTNV-1" source="9A3nvJYk9NIWhy4ign9h-114" target="9A3nvJYk9NIWhy4ign9h-116">
          <mxGeometry relative="1" as="geometry">
            <Array as="points" />
          </mxGeometry>
        </mxCell>
        <mxCell id="9A3nvJYk9NIWhy4ign9h-163" value="" style="curved=1;startArrow=none;endArrow=block;exitX=0.5019361413043478;exitY=1;entryX=0.5016493055555555;entryY=0;rounded=0;fillColor=#b0e3e6;strokeColor=#0e8088;fontStyle=1;fontSize=13;labelBorderColor=none;labelBackgroundColor=none;textShadow=0;" edge="1" parent="WIyWlLk6GJQsqaUBKTNV-1" source="9A3nvJYk9NIWhy4ign9h-116" target="9A3nvJYk9NIWhy4ign9h-117">
          <mxGeometry relative="1" as="geometry">
            <Array as="points" />
          </mxGeometry>
        </mxCell>
        <mxCell id="9A3nvJYk9NIWhy4ign9h-164" value="" style="curved=1;startArrow=none;endArrow=block;exitX=0.5016493055555555;exitY=1;entryX=0.4982666015625;entryY=0;rounded=0;fillColor=#b0e3e6;strokeColor=#0e8088;fontStyle=1;fontSize=13;labelBorderColor=none;labelBackgroundColor=none;textShadow=0;" edge="1" parent="WIyWlLk6GJQsqaUBKTNV-1" source="9A3nvJYk9NIWhy4ign9h-117" target="9A3nvJYk9NIWhy4ign9h-118">
          <mxGeometry relative="1" as="geometry">
            <Array as="points" />
          </mxGeometry>
        </mxCell>
        <mxCell id="9A3nvJYk9NIWhy4ign9h-165" value="" style="curved=1;startArrow=none;endArrow=block;exitX=0.4982666015625;exitY=1;entryX=0.5009895833333333;entryY=0;rounded=0;fillColor=#b0e3e6;strokeColor=#0e8088;fontStyle=1;fontSize=13;labelBorderColor=none;labelBackgroundColor=none;textShadow=0;" edge="1" parent="WIyWlLk6GJQsqaUBKTNV-1" source="9A3nvJYk9NIWhy4ign9h-118" target="9A3nvJYk9NIWhy4ign9h-119">
          <mxGeometry relative="1" as="geometry">
            <Array as="points" />
          </mxGeometry>
        </mxCell>
        <mxCell id="9A3nvJYk9NIWhy4ign9h-166" value="Yes" style="curved=1;startArrow=none;endArrow=block;exitX=0.5009895833333333;exitY=1.0007638888888888;entryX=0.5008731617647059;entryY=0.00505514705882353;rounded=0;fillColor=#b0e3e6;strokeColor=#0e8088;fontStyle=1;fontSize=13;labelBorderColor=none;labelBackgroundColor=none;textShadow=0;" edge="1" parent="WIyWlLk6GJQsqaUBKTNV-1" source="9A3nvJYk9NIWhy4ign9h-119" target="9A3nvJYk9NIWhy4ign9h-120">
          <mxGeometry relative="1" as="geometry">
            <Array as="points" />
          </mxGeometry>
        </mxCell>
        <mxCell id="9A3nvJYk9NIWhy4ign9h-167" value="" style="curved=1;startArrow=none;endArrow=block;exitX=0.5008731617647059;exitY=1.0050551470588236;entryX=0.49840607040229884;entryY=0.0009877873563218392;rounded=0;fillColor=#b0e3e6;strokeColor=#0e8088;fontStyle=1;fontSize=13;labelBorderColor=none;labelBackgroundColor=none;textShadow=0;" edge="1" parent="WIyWlLk6GJQsqaUBKTNV-1" source="9A3nvJYk9NIWhy4ign9h-120" target="9A3nvJYk9NIWhy4ign9h-121">
          <mxGeometry relative="1" as="geometry">
            <Array as="points" />
          </mxGeometry>
        </mxCell>
        <mxCell id="9A3nvJYk9NIWhy4ign9h-168" value="Yes" style="curved=1;startArrow=none;endArrow=block;exitX=0.49840607040229884;exitY=1.0003591954022988;entryX=0.5018710609243697;entryY=0.001838235294117647;rounded=0;fillColor=#b0e3e6;strokeColor=#0e8088;fontStyle=1;fontSize=13;labelBorderColor=none;labelBackgroundColor=none;textShadow=0;" edge="1" parent="WIyWlLk6GJQsqaUBKTNV-1" source="9A3nvJYk9NIWhy4ign9h-121" target="9A3nvJYk9NIWhy4ign9h-122">
          <mxGeometry relative="1" as="geometry">
            <Array as="points" />
          </mxGeometry>
        </mxCell>
        <mxCell id="9A3nvJYk9NIWhy4ign9h-169" value="" style="curved=1;startArrow=none;endArrow=block;exitX=0.997876213592233;exitY=0.6845663565650156;entryX=0.5045094209558824;entryY=0;rounded=0;fillColor=#b0e3e6;strokeColor=#0e8088;fontStyle=1;fontSize=13;labelBorderColor=none;labelBackgroundColor=none;textShadow=0;flowAnimation=1;" edge="1" parent="WIyWlLk6GJQsqaUBKTNV-1" source="9A3nvJYk9NIWhy4ign9h-144" target="9A3nvJYk9NIWhy4ign9h-135">
          <mxGeometry relative="1" as="geometry">
            <Array as="points">
              <mxPoint x="914" y="254" />
            </Array>
          </mxGeometry>
        </mxCell>
        <mxCell id="9A3nvJYk9NIWhy4ign9h-170" value="" style="curved=1;startArrow=none;endArrow=block;exitX=0.49677639563106796;exitY=1;entryX=0.5012350643382353;entryY=0;rounded=0;fillColor=#b0e3e6;strokeColor=#0e8088;fontStyle=1;fontSize=13;labelBorderColor=none;labelBackgroundColor=none;textShadow=0;" edge="1" parent="WIyWlLk6GJQsqaUBKTNV-1" source="9A3nvJYk9NIWhy4ign9h-144" target="9A3nvJYk9NIWhy4ign9h-125">
          <mxGeometry relative="1" as="geometry">
            <Array as="points" />
          </mxGeometry>
        </mxCell>
        <mxCell id="9A3nvJYk9NIWhy4ign9h-171" value="" style="curved=1;startArrow=none;endArrow=block;exitX=-0.004323422330097087;exitY=0.6845663565650156;entryX=0.49796070772058826;entryY=0;rounded=0;fillColor=#b0e3e6;strokeColor=#0e8088;fontStyle=1;fontSize=13;labelBorderColor=none;labelBackgroundColor=none;textShadow=0;flowAnimation=1;" edge="1" parent="WIyWlLk6GJQsqaUBKTNV-1" source="9A3nvJYk9NIWhy4ign9h-144" target="9A3nvJYk9NIWhy4ign9h-115">
          <mxGeometry relative="1" as="geometry">
            <Array as="points">
              <mxPoint x="223" y="254" />
            </Array>
          </mxGeometry>
        </mxCell>
        <mxCell id="9A3nvJYk9NIWhy4ign9h-174" value="" style="edgeStyle=orthogonalEdgeStyle;rounded=0;orthogonalLoop=1;jettySize=auto;html=1;" edge="1" parent="WIyWlLk6GJQsqaUBKTNV-1" source="9A3nvJYk9NIWhy4ign9h-172" target="9A3nvJYk9NIWhy4ign9h-143">
          <mxGeometry relative="1" as="geometry" />
        </mxCell>
        <mxCell id="9A3nvJYk9NIWhy4ign9h-172" value="" style="dashed=0;outlineConnect=0;html=1;align=center;labelPosition=center;verticalLabelPosition=bottom;verticalAlign=top;shape=mxgraph.weblogos.github;fillColor=none;strokeColor=#1bdeae;" vertex="1" parent="WIyWlLk6GJQsqaUBKTNV-1">
          <mxGeometry x="521" width="75" height="75" as="geometry" />
        </mxCell>
        <mxCell id="9A3nvJYk9NIWhy4ign9h-310" value="" style="endArrow=classic;html=1;rounded=0;flowAnimation=1;" edge="1" parent="WIyWlLk6GJQsqaUBKTNV-1">
          <mxGeometry relative="1" as="geometry">
            <mxPoint x="120" y="229" as="sourcePoint" />
            <mxPoint x="220" y="229" as="targetPoint" />
          </mxGeometry>
        </mxCell>
        <mxCell id="9A3nvJYk9NIWhy4ign9h-311" value="Label" style="edgeLabel;resizable=0;html=1;;align=center;verticalAlign=middle;" connectable="0" vertex="1" parent="9A3nvJYk9NIWhy4ign9h-310">
          <mxGeometry relative="1" as="geometry" />
        </mxCell>
        <mxCell id="9A3nvJYk9NIWhy4ign9h-312" value="PUSH" style="edgeLabel;html=1;align=center;verticalAlign=middle;resizable=0;points=[];" vertex="1" connectable="0" parent="9A3nvJYk9NIWhy4ign9h-310">
          <mxGeometry x="-0.02" y="-1" relative="1" as="geometry">
            <mxPoint as="offset" />
          </mxGeometry>
        </mxCell>
        <mxCell id="9A3nvJYk9NIWhy4ign9h-315" value="" style="sketch=0;pointerEvents=1;shadow=0;dashed=0;html=1;strokeColor=none;fillColor=#505050;labelPosition=center;verticalLabelPosition=bottom;verticalAlign=top;outlineConnect=0;align=center;shape=mxgraph.office.communications.exchange_active_sync;fillColor=#2072B8;" vertex="1" parent="WIyWlLk6GJQsqaUBKTNV-1">
          <mxGeometry x="460" y="1540" width="90" height="90" as="geometry" />
        </mxCell>
      </root>
    </mxGraphModel>
  </diagram>
</mxfile>
